<?xml version="1.0" encoding="utf-8"?>
<!-- Generator: Adobe Illustrator 23.0.3, SVG Export Plug-In . SVG Version: 6.00 Build 0)  -->
<svg version="1.1"
	 id="svg48" inkscape:version="0.92.4 (5da689c313, 2019-01-14)" sodipodi:docname="photoBox.svg" xmlns:cc="http://creativecommons.org/ns#" xmlns:dc="http://purl.org/dc/elements/1.1/" xmlns:inkscape="http://www.inkscape.org/namespaces/inkscape" xmlns:rdf="http://www.w3.org/1999/02/22-rdf-syntax-ns#" xmlns:sodipodi="http://sodipodi.sourceforge.net/DTD/sodipodi-0.dtd" xmlns:svg="http://www.w3.org/2000/svg"
	 xmlns="http://www.w3.org/2000/svg" xmlns:xlink="http://www.w3.org/1999/xlink" x="0px" y="0px" viewBox="0 0 765 174"
	 style="enable-background:new 0 0 765 174;" xml:space="preserve">
<style type="text/css">
	.st0{fill:#636363;}
	.st1{opacity:0.85;}
	.st2{fill:#FFFFFF;}
	.st3{fill:none;stroke:#636363;stroke-width:2;stroke-miterlimit:10;}
</style>
<sodipodi:namedview  bordercolor="#666666" borderopacity="1" gridtolerance="10" guidetolerance="10" id="namedview50" inkscape:current-layer="Livello_1" inkscape:cx="511.70365" inkscape:cy="38.882622" inkscape:pageopacity="0" inkscape:pageshadow="2" inkscape:window-height="2050" inkscape:window-maximized="1" inkscape:window-width="3840" inkscape:window-x="-12" inkscape:window-y="-12" inkscape:zoom="3.2470588" objecttolerance="10" pagecolor="#ffffff" showgrid="false">
	</sodipodi:namedview>
<g>
	<g id="Livello_3">
		<g id="g6">
			<path id="path4" class="st0" d="M39.3,164.8c7-1.9,14-3.6,21-5.3c7-1.6,14.1-3.2,21.1-4.7c14.1-3,28.3-5.7,42.5-8.2
				c28.4-5,57-9,85.7-12.3s57.5-5.7,86.3-7.5c28.8-1.6,57.7-2.5,86.6-2.7l21.7,0.1c7.2,0.1,14.4,0.3,21.7,0.4l10.8,0.2l10.8,0.4
				c7.2,0.3,14.4,0.5,21.6,1c14.4,0.9,28.8,1.7,43.2,3l10.8,0.9l5.4,0.5c1.8,0.2,3.6,0.4,5.4,0.6l21.5,2.3
				c57.4,6.5,114.3,17,170.3,31.2l-21.2-4.2l-10.6-2.2c-3.5-0.7-7.1-1.3-10.6-2l-21.3-3.8c-3.5-0.7-7.1-1.2-10.7-1.7l-10.7-1.6
				l-10.7-1.7c-1.8-0.3-3.6-0.6-5.3-0.8l-5.4-0.7l-21.4-2.9l-5.4-0.7l-5.4-0.6l-10.7-1.2l-10.7-1.2l-5.4-0.6l-5.4-0.5l-21.5-2
				l-5.4-0.5l-5.4-0.4l-10.8-0.8c-14.3-1.2-28.7-1.8-43.1-2.6c-28.8-1.2-57.5-2-86.3-1.8c-28.8,0.1-57.6,0.9-86.3,2.3
				c-28.8,1.4-57.5,3.7-86.1,6.5c-7.2,0.6-14.3,1.5-21.5,2.2s-14.3,1.7-21.5,2.5c-3.6,0.4-7.2,0.9-10.7,1.3l-10.7,1.4
				c-7.1,1-14.3,2-21.4,3C95.9,153.7,67.5,158.6,39.3,164.8z"/>
		</g>
	</g>
	<g id="Livello_1" class="st1">
		<g id="g25">
			<path id="path9" class="st2" d="M191.4,17.3c-37.4-1-79.5,20.8-79.5,35.7c0,5.5,8.2,7.5,13.2,8.3c2.3,0.4,1.9,1.5,0.4,1.5
				c-6.1,0-10.6-0.8-14.9-3c-4.1-2.3-7.5-5.7-7.5-10.2c0-24.1,48-42.5,85.3-39.9c39.6,2.8,46.5,24.2,46.5,34.2
				c0,14.2-22.7,29.1-43.7,38.7c-15.5,7.1-32.7,11.6-45.2,12.7c-13.2,18.3-24.1,37.6-24.1,45.3c0,1,0.2,1.5,0.8,1.8
				c0,0.1-0.3,0.2-0.5,0.2c-1.4,0-7.3-4.1-7.3-9.8c0-0.6,0.2-1.5,0.5-2.4c1.8-5.4,11.5-24.9,18.5-35.4c-3.6,0-8.7-0.9-12.7-2.4
				c-6.4-2.4-10.2-6.2-11.6-10.3c-0.4-1.1,0.2-2.4,1.1-0.9c2.8,5,7.5,7.5,16.8,7.5c3.4,0,7.4-0.4,11.8-1.2
				c9.5-13.4,18.1-26.8,29.3-40.3c8-10.2,13.4-16.3,13.4-21.2c0-1.3-0.3-2.1-1-2.6c0-0.1,0.1-0.2,0.4-0.2c2.9,0,10,7.8,10,11.9
				c0,1.4-4.8,7.9-13.1,17.6c-8.3,9.8-16.4,21.2-24.6,31.8c35-7.8,73-30.1,73.9-51.2C228.2,24.3,212.9,17.9,191.4,17.3z"/>
			<path id="path11" class="st2" d="M240.9,76.1c4.5-4.4,23.7-21.6,28.5-21.6c1.4,0,2.7,1.1,3.9,2.3c2.4,2.5,5.7,7.7,5.6,9
				c0,0.2-0.1,0.4-0.2,0.6c-5.3,6.3-9.1,10.1-15.9,19.5c-6.1,8.3-10.9,15.9-11,18.2c0,0.3,0.1,0.5,0.5,0.5c2.4,0,20.3-14.7,35-28.8
				c0.8-0.8,1.5,0.1,1,0.9c-2.4,3-8.1,9.7-14.6,16.4c-7,7.1-19.8,19.5-23.3,19.5c-4.1,0-9.8-7.1-9.5-11.3c0-0.3,0.1-0.8,0.2-1.1
				c0.8-2.2,5-9.3,14.1-21.9c5.1-7,13.5-17.2,13.5-17.5c0-0.2-0.2-0.2-0.2-0.2c-0.8,0-12,5.6-25.2,18.2c-5.8,5.6-12,11.1-17.4,17.6
				c-5,6.1-10,12.7-10,14.5c0,0.3,0.1,0.8,0.2,0.9c0.9,0.8-0.2,1.2-1.5,1c-1.4-0.2-7.5-7-6.5-10.6c1.4-5,11.4-20.2,21.2-33.9
				c10.6-14.8,24-33.2,28.7-41.9c2.4-4.4,3.4-8,1.4-9c-0.1,0,0.9-0.9,3.6,1.4c2.2,1.8,6.9,8.3,6.8,9.8c0,0.2-0.1,0.4-0.2,0.6
				l-27.7,39c-5,7-10.1,13.7-16.6,24.2C227.8,89.1,235.4,81.4,240.9,76.1z"/>
			<path id="path13" class="st2" d="M309.2,60.7c3-3.1,9.8-5.8,13-6.5c6.1-1.3,13.1,6.1,14.3,14.3c7.7,0.4,15.3,0.2,16.9-0.1
				c1.3-0.2,2.7,0.4-0.6,1.5c-1.9,0.6-8.5,1.2-16.2,1.3c-0.8,12.2-28.9,44.2-47.7,41c-4.1-0.6-14.6-5.6-14.3-14.2
				C274.8,85,295.1,64.7,309.2,60.7z M285.9,108c9.3-0.1,33.3-21.6,41.3-37c-5-0.3-9.8-1-13.4-2.1c-16.3,5.4-31.6,27.9-31.6,35.5
				C282.2,106.6,283.4,108,285.9,108z M324.2,57c-3.4,0.6-5.7,3.6-6.2,5.7c-0.4,2.7,4.3,4.2,10.6,5.1c0.8-1.9,1.2-3.8,1.2-5.5
				C329.8,58.4,327.7,56.4,324.2,57z"/>
			<path id="path15" class="st2" d="M339.2,104c0,0.3,0.1,0.5,0.5,0.5c2.3,0,20.6-14.8,35-28.8c0.8-0.8,1.6,0,1.1,0.8
				c-2.4,3.1-7.6,9.1-14.7,16.6s-20,19.5-23.3,19.5c-1.5,0-3.1-0.9-4.8-2.3c-2.6-2.3-4.8-5.3-4.7-7.4c0-0.5,0.2-1.2,0.4-1.7
				c2.2-5.7,11.6-20,20.9-32.9L367,43.7c-6.6,1.9-11.3,3.9-12.3,5c-1.3,1.4,1.8,3.5,3.7,4.4c0.4,0.2,0.1,0.5-0.2,0.5
				c-5.1-0.4-8.8-3.1-9.1-4.2c-1.7-5,4-9.1,5.7-9.7c5.4-2.3,11.3-3.4,17.6-3.9c2.4-3.6,4.3-6.7,5.7-9.3c2.4-4.4,3.4-8,1.4-9
				c-0.1,0,0.9-0.9,3.6,1.4c2.2,1.8,6.7,8.3,6.6,9.8c0,0.2-0.1,0.4-0.2,0.6l-4.3,6.1h1c13.5,0,34.7,2.1,40,4.7
				c0.3,0.1,0,0.3-0.1,0.3c-7.8-0.9-19.2-0.5-31.3-0.1c-4.2,0.1-9,0.4-13.9,1.1l-19,26.8C361.4,69.2,339.2,99.5,339.2,104z"/>
			<path id="path17" class="st2" d="M396.7,60.7c3-3.1,9.8-5.8,13-6.5c6.1-1.3,13.1,6.1,14.3,14.3c7.7,0.4,15.3,0.2,16.9-0.1
				c1.3-0.2,2.7,0.4-0.6,1.5c-1.9,0.6-8.5,1.2-16.2,1.3c-0.8,12.2-28.9,44.2-47.7,41c-4.1-0.6-14.6-5.6-14.3-14.2
				C362.4,85,382.6,64.7,396.7,60.7z M373.4,108c9.3-0.1,33.3-21.6,41.3-37c-5-0.3-9.8-1-13.4-2.1c-16.3,5.4-31.6,27.9-31.6,35.5
				C369.7,106.6,370.9,108,373.4,108z M411.7,57c-3.4,0.6-5.7,3.6-6.2,5.7c-0.4,2.7,4.3,4.2,10.6,5.1c0.8-1.9,1.2-3.8,1.2-5.5
				C417.4,58.4,415.2,56.4,411.7,57z"/>
			<path id="path19" class="st2" d="M489.8,26.5c-9,4.3-23.4,12.4-22.1,21c0.4,2.6,2.7,4.9,9.5,6.6c2.2,0.5,1.7,1.4,0.4,1.3
				c-5.3-0.3-9.2-1.1-13-3.6c-3.4-2.1-6.1-5.4-6-9.4c0.3-11.3,14-21.5,33-27.6c18.3-5.8,40.6-7.6,56.9-3
				c19.9,5.6,25.9,24.1,24.3,29.9c-2.8,11.8-20.9,18.9-37.9,22.7c10.1,1.8,21.5,6,26.2,13.6c5.6,1,12.2,2.6,17.9,4.3
				c1.2,0.3,1.4,1.3-0.4,0.9c-6.1-1.4-11.6-2.3-16.2-2.7c0.5,1.4,0.9,2.9,1,4.4c0.6,15.3-17.7,29-45.3,40.6
				c-17.6,7.5-38.3,12.8-55.8,14.1c-2.6,5.3-3,7.7-2.1,9.5l0.3,0.5c0,1-8.3-3.8-7.9-9.7c-1.4,0-2.8,0-4.1-0.1
				c-10.3-0.5-28.2-7.3-30.6-17.5c-4.2-18.3,32.4-35.6,73.3-42.7c3-3.7,6.2-7.4,9.5-11.3c-1.3-1-2.9-2.7-2.9-3.6
				c0-1.1,2.3-1.3,7-1.7c14.5-17.1,27.3-30.9,27.8-37.6c0.1-1.7-0.2-2.6-1-3c-0.1-0.1,0.3-0.3,0.6-0.2c0.8,0.1,1.6,0.5,3.6,2.3
				c2.9,2.8,6,8.3,5.6,10.2c-0.3,1.7-8.9,13.4-22,27.3c18-2.9,43.8-16.1,47.1-27.1c3.4-11-13.2-16.7-22.7-17.6
				C525.9,15.4,506.6,18.4,489.8,26.5z M455.8,131.6c8.3-15.7,18.6-30.4,29.5-44.9c-4.3,1.1-8.4,2.4-12.3,3.7
				c-32.1,10.6-50.6,27.1-48,35.8c1.1,3.6,7,5.3,10.7,5.7C441.9,132.7,448.7,132.5,455.8,131.6z M555.2,80.1
				c-5.5-0.3-10.9-0.4-16.1-0.4c-12.9,0-25.1,1.1-38.4,3.5c-2.7,3.2-5.3,6.6-7.9,9.8c-7.7,9.5-17.9,24.2-25.2,36.7
				c15.6-3.2,31.8-9,46.5-15C539,104.2,554.6,90,555.2,80.1z M531.6,76.2c7.8,0,15.6,0.3,23.1,1c-2.7-6.6-16.7-10.5-28.8-10.5
				c-3.2,0-6.5,0.3-11.8,1c-3,3.2-6,6.5-8.8,9.8C513.9,76.6,522.8,76.2,531.6,76.2z"/>
			<path id="path21" class="st2" d="M600.8,60.7c3-3.1,9.8-5.8,13-6.5c6.1-1.3,13.1,6.1,14.3,14.3c7.7,0.4,15.3,0.2,16.9-0.1
				c1.3-0.2,2.7,0.4-0.6,1.5c-1.9,0.6-8.5,1.2-16.2,1.3c-0.8,12.2-28.9,44.2-47.7,41c-4.1-0.6-14.6-5.6-14.3-14.2
				C566.5,85,586.7,64.7,600.8,60.7z M577.5,108c9.3-0.1,33.3-21.6,41.3-37c-5-0.3-9.8-1-13.4-2.1c-16.3,5.4-31.6,27.9-31.6,35.5
				C573.8,106.6,575,108,577.5,108z M615.8,57c-3.4,0.6-5.7,3.6-6.2,5.7c-0.4,2.7,4.3,4.2,10.6,5.1c0.8-1.9,1.2-3.8,1.2-5.5
				C621.4,58.4,619.3,56.4,615.8,57z"/>
			<path id="path23" class="st2" d="M644.4,84.2c-4.2,3.8-8.3,7.9-12.4,12.3c-2.7,2.8-10.2,11.9-10.4,16.1c-0.1,1.3,0.3,2.1,0.8,2.3
				c-0.4,0.2-4.2-0.3-6.9-2.1c-1.9-1.3-2.7-2.7-2.8-3.9c-0.3-4.1,11.1-13.7,25.1-24.1l6.7-5c0-6.3,0-12-0.1-15.2
				c-0.3-4.2-1.7-7.6-3.6-7.1c-0.2,0,0.4-1.6,3.9-1.3c4.8,0.4,8.4,2.4,9.5,3.9c0.4,0.5,0.6,2.5,0.6,5.5c0,0.5-0.1,3.2-0.1,6.8
				c0.5-0.3,1.1-0.8,1.6-1.2c7.1-5.2,12.1-8.5,17-12c4.1-3,8.9-6,10.3-6c2.4,0,4.7,1.7,5.4,4c1.2,4,0,8.5-2.5,11
				c0.1-1.1-0.2-2.3-0.9-3.2c-0.8-1.2-3-2.3-6-1.9c-6.5,0.8-17.3,7.6-25,13c-0.1,11.6,0.2,28.4,3,28.4c2.4,0,18-14.7,32.6-28.8
				c0.8-0.8,1.5,0.1,1,0.9c-2.4,3-8.1,9.7-14.6,16.4c-7,7.1-17.7,19.5-21.2,19.5c-3.2,0-7.5-2.5-8.7-5.6
				C645,102.4,644.6,93.2,644.4,84.2z"/>
		</g>
	</g>
	<g id="Livello_1_1_">
		<g id="g25_1_">
			<path id="path9_1_" class="st3" d="M191.4,17.3c-37.4-1-79.5,20.8-79.5,35.7c0,5.5,8.2,7.5,13.2,8.3c2.3,0.4,1.9,1.5,0.4,1.5
				c-6.1,0-10.6-0.8-14.9-3c-4.1-2.3-7.5-5.7-7.5-10.2c0-24.1,48-42.5,85.3-39.9c39.6,2.8,46.5,24.2,46.5,34.2
				c0,14.2-22.7,29.1-43.7,38.7c-15.5,7.1-32.7,11.6-45.2,12.7c-13.2,18.3-24.1,37.6-24.1,45.3c0,1,0.2,1.5,0.8,1.8
				c0,0.1-0.3,0.2-0.5,0.2c-1.4,0-7.3-4.1-7.3-9.8c0-0.6,0.2-1.5,0.5-2.4c1.8-5.4,11.5-24.9,18.5-35.4c-3.6,0-8.7-0.9-12.7-2.4
				c-6.4-2.4-10.2-6.2-11.6-10.3c-0.4-1.1,0.2-2.4,1.1-0.9c2.8,5,7.5,7.5,16.8,7.5c3.4,0,7.4-0.4,11.8-1.2
				c9.5-13.4,18.1-26.8,29.3-40.3c8-10.2,13.4-16.3,13.4-21.2c0-1.3-0.3-2.1-1-2.6c0-0.1,0.1-0.2,0.4-0.2c2.9,0,10,7.8,10,11.9
				c0,1.4-4.8,7.9-13.1,17.6c-8.3,9.8-16.4,21.2-24.6,31.8c35-7.8,73-30.1,73.9-51.2C228.2,24.3,212.9,17.9,191.4,17.3z"/>
			<path id="path11_1_" class="st3" d="M240.9,76.1c4.5-4.4,23.7-21.6,28.5-21.6c1.4,0,2.7,1.1,3.9,2.3c2.4,2.5,5.7,7.7,5.6,9
				c0,0.2-0.1,0.4-0.2,0.6c-5.3,6.3-9.1,10.1-15.9,19.5c-6.1,8.3-10.9,15.9-11,18.2c0,0.3,0.1,0.5,0.5,0.5c2.4,0,20.3-14.7,35-28.8
				c0.8-0.8,1.5,0.1,1,0.9c-2.4,3-8.1,9.7-14.6,16.4c-7,7.1-19.8,19.5-23.3,19.5c-4.1,0-9.8-7.1-9.5-11.3c0-0.3,0.1-0.8,0.2-1.1
				c0.8-2.2,5-9.3,14.1-21.9c5.1-7,13.5-17.2,13.5-17.5c0-0.2-0.2-0.2-0.2-0.2c-0.8,0-12,5.6-25.2,18.2c-5.8,5.6-12,11.1-17.4,17.6
				c-5,6.1-10,12.7-10,14.5c0,0.3,0.1,0.8,0.2,0.9c0.9,0.8-0.2,1.2-1.5,1c-1.4-0.2-7.5-7-6.5-10.6c1.4-5,11.4-20.2,21.2-33.9
				c10.6-14.8,24-33.2,28.7-41.9c2.4-4.4,3.4-8,1.4-9c-0.1,0,0.9-0.9,3.6,1.4c2.2,1.8,6.9,8.3,6.8,9.8c0,0.2-0.1,0.4-0.2,0.6
				l-27.7,39c-5,7-10.1,13.7-16.6,24.2C227.8,89.1,235.4,81.4,240.9,76.1z"/>
			<path id="path13_1_" class="st3" d="M309.2,60.7c3-3.1,9.8-5.8,13-6.5c6.1-1.3,13.1,6.1,14.3,14.3c7.7,0.4,15.3,0.2,16.9-0.1
				c1.3-0.2,2.7,0.4-0.6,1.5c-1.9,0.6-8.5,1.2-16.2,1.3c-0.8,12.2-28.9,44.2-47.7,41c-4.1-0.6-14.6-5.6-14.3-14.2
				C274.8,85,295.1,64.7,309.2,60.7z M285.9,108c9.3-0.1,33.3-21.6,41.3-37c-5-0.3-9.8-1-13.4-2.1c-16.3,5.4-31.6,27.9-31.6,35.5
				C282.2,106.6,283.4,108,285.9,108z M324.2,57c-3.4,0.6-5.7,3.6-6.2,5.7c-0.4,2.7,4.3,4.2,10.6,5.1c0.8-1.9,1.2-3.8,1.2-5.5
				C329.8,58.4,327.7,56.4,324.2,57z"/>
			<path id="path15_1_" class="st3" d="M339.2,104c0,0.3,0.1,0.5,0.5,0.5c2.3,0,20.6-14.8,35-28.8c0.8-0.8,1.6,0,1.1,0.8
				c-2.4,3.1-7.6,9.1-14.7,16.6s-20,19.5-23.3,19.5c-1.5,0-3.1-0.9-4.8-2.3c-2.6-2.3-4.8-5.3-4.7-7.4c0-0.5,0.2-1.2,0.4-1.7
				c2.2-5.7,11.6-20,20.9-32.9L367,43.7c-6.6,1.9-11.3,3.9-12.3,5c-1.3,1.4,1.8,3.5,3.7,4.4c0.4,0.2,0.1,0.5-0.2,0.5
				c-5.1-0.4-8.8-3.1-9.1-4.2c-1.7-5,4-9.1,5.7-9.7c5.4-2.3,11.3-3.4,17.6-3.9c2.4-3.6,4.3-6.7,5.7-9.3c2.4-4.4,3.4-8,1.4-9
				c-0.1,0,0.9-0.9,3.6,1.4c2.2,1.8,6.7,8.3,6.6,9.8c0,0.2-0.1,0.4-0.2,0.6l-4.3,6.1h1c13.5,0,34.7,2.1,40,4.7
				c0.3,0.1,0,0.3-0.1,0.3c-7.8-0.9-19.2-0.5-31.3-0.1c-4.2,0.1-9,0.4-13.9,1.1l-19,26.8C361.4,69.2,339.2,99.5,339.2,104z"/>
			<path id="path17_1_" class="st3" d="M396.7,60.7c3-3.1,9.8-5.8,13-6.5c6.1-1.3,13.1,6.1,14.3,14.3c7.7,0.4,15.3,0.2,16.9-0.1
				c1.3-0.2,2.7,0.4-0.6,1.5c-1.9,0.6-8.5,1.2-16.2,1.3c-0.8,12.2-28.9,44.2-47.7,41c-4.1-0.6-14.6-5.6-14.3-14.2
				C362.4,85,382.6,64.7,396.7,60.7z M373.4,108c9.3-0.1,33.3-21.6,41.3-37c-5-0.3-9.8-1-13.4-2.1c-16.3,5.4-31.6,27.9-31.6,35.5
				C369.7,106.6,370.9,108,373.4,108z M411.7,57c-3.4,0.6-5.7,3.6-6.2,5.7c-0.4,2.7,4.3,4.2,10.6,5.1c0.8-1.9,1.2-3.8,1.2-5.5
				C417.4,58.4,415.2,56.4,411.7,57z"/>
			<path id="path19_1_" class="st3" d="M489.8,26.5c-9,4.3-23.4,12.4-22.1,21c0.4,2.6,2.7,4.9,9.5,6.6c2.2,0.5,1.7,1.4,0.4,1.3
				c-5.3-0.3-9.2-1.1-13-3.6c-3.4-2.1-6.1-5.4-6-9.4c0.3-11.3,14-21.5,33-27.6c18.3-5.8,40.6-7.6,56.9-3
				c19.9,5.6,25.9,24.1,24.3,29.9c-2.8,11.8-20.9,18.9-37.9,22.7c10.1,1.8,21.5,6,26.2,13.6c5.6,1,12.2,2.6,17.9,4.3
				c1.2,0.3,1.4,1.3-0.4,0.9c-6.1-1.4-11.6-2.3-16.2-2.7c0.5,1.4,0.9,2.9,1,4.4c0.6,15.3-17.7,29-45.3,40.6
				c-17.6,7.5-38.3,12.8-55.8,14.1c-2.6,5.3-3,7.7-2.1,9.5l0.3,0.5c0,1-8.3-3.8-7.9-9.7c-1.4,0-2.8,0-4.1-0.1
				c-10.3-0.5-28.2-7.3-30.6-17.5c-4.2-18.3,32.4-35.6,73.3-42.7c3-3.7,6.2-7.4,9.5-11.3c-1.3-1-2.9-2.7-2.9-3.6
				c0-1.1,2.3-1.3,7-1.7c14.5-17.1,27.3-30.9,27.8-37.6c0.1-1.7-0.2-2.6-1-3c-0.1-0.1,0.3-0.3,0.6-0.2c0.8,0.1,1.6,0.5,3.6,2.3
				c2.9,2.8,6,8.3,5.6,10.2c-0.3,1.7-8.9,13.4-22,27.3c18-2.9,43.8-16.1,47.1-27.1c3.4-11-13.2-16.7-22.7-17.6
				C525.9,15.4,506.6,18.4,489.8,26.5z M455.8,131.6c8.3-15.7,18.6-30.4,29.5-44.9c-4.3,1.1-8.4,2.4-12.3,3.7
				c-32.1,10.6-50.6,27.1-48,35.8c1.1,3.6,7,5.3,10.7,5.7C441.9,132.7,448.7,132.5,455.8,131.6z M555.2,80.1
				c-5.5-0.3-10.9-0.4-16.1-0.4c-12.9,0-25.1,1.1-38.4,3.5c-2.7,3.2-5.3,6.6-7.9,9.8c-7.7,9.5-17.9,24.2-25.2,36.7
				c15.6-3.2,31.8-9,46.5-15C539,104.2,554.6,90,555.2,80.1z M531.6,76.2c7.8,0,15.6,0.3,23.1,1c-2.7-6.6-16.7-10.5-28.8-10.5
				c-3.2,0-6.5,0.3-11.8,1c-3,3.2-6,6.5-8.8,9.8C513.9,76.6,522.8,76.2,531.6,76.2z"/>
			<path id="path21_1_" class="st3" d="M600.8,60.7c3-3.1,9.8-5.8,13-6.5c6.1-1.3,13.1,6.1,14.3,14.3c7.7,0.4,15.3,0.2,16.9-0.1
				c1.3-0.2,2.7,0.4-0.6,1.5c-1.9,0.6-8.5,1.2-16.2,1.3c-0.8,12.2-28.9,44.2-47.7,41c-4.1-0.6-14.6-5.6-14.3-14.2
				C566.5,85,586.7,64.7,600.8,60.7z M577.5,108c9.3-0.1,33.3-21.6,41.3-37c-5-0.3-9.8-1-13.4-2.1c-16.3,5.4-31.6,27.9-31.6,35.5
				C573.8,106.6,575,108,577.5,108z M615.8,57c-3.4,0.6-5.7,3.6-6.2,5.7c-0.4,2.7,4.3,4.2,10.6,5.1c0.8-1.9,1.2-3.8,1.2-5.5
				C621.4,58.4,619.3,56.4,615.8,57z"/>
			<path id="path23_1_" class="st3" d="M644.4,84.2c-4.2,3.8-8.3,7.9-12.4,12.3c-2.7,2.8-10.2,11.9-10.4,16.1
				c-0.1,1.3,0.3,2.1,0.8,2.3c-0.4,0.2-4.2-0.3-6.9-2.1c-1.9-1.3-2.7-2.7-2.8-3.9c-0.3-4.1,11.1-13.7,25.1-24.1l6.7-5
				c0-6.3,0-12-0.1-15.2c-0.3-4.2-1.7-7.6-3.6-7.1c-0.2,0,0.4-1.6,3.9-1.3c4.8,0.4,8.4,2.4,9.5,3.9c0.4,0.5,0.6,2.5,0.6,5.5
				c0,0.5-0.1,3.2-0.1,6.8c0.5-0.3,1.1-0.8,1.6-1.2c7.1-5.2,12.1-8.5,17-12c4.1-3,8.9-6,10.3-6c2.4,0,4.7,1.7,5.4,4
				c1.2,4,0,8.5-2.5,11c0.1-1.1-0.2-2.3-0.9-3.2c-0.8-1.2-3-2.3-6-1.9c-6.5,0.8-17.3,7.6-25,13c-0.1,11.6,0.2,28.4,3,28.4
				c2.4,0,18-14.7,32.6-28.8c0.8-0.8,1.5,0.1,1,0.9c-2.4,3-8.1,9.7-14.6,16.4c-7,7.1-17.7,19.5-21.2,19.5c-3.2,0-7.5-2.5-8.7-5.6
				C645,102.4,644.6,93.2,644.4,84.2z"/>
		</g>
	</g>
</g>
</svg>
